HIERARCHY
ROOT hip
{
	OFFSET 0.000000 0.000000 0.000000
	CHANNELS 6 Xposition Yposition Zposition Zrotation Yrotation Xrotation 
	JOINT lhipjoint
	{
		OFFSET 0.000000 0.000000 0.000000
		CHANNELS 3 Zrotation Yrotation Xrotation
		JOINT lfemur
		{
			OFFSET 1.363060 -1.794630 0.839290
			CHANNELS 3 Zrotation Yrotation Xrotation
			JOINT ltibia
			{
				OFFSET 2.448110 -6.726130 0.000000
				CHANNELS 3 Zrotation Yrotation Xrotation
				JOINT lfoot
				{
					OFFSET 2.562200 -7.039590 0.000000
					CHANNELS 3 Zrotation Yrotation Xrotation
					JOINT ltoes
					{
						OFFSET 0.157640 -0.433110 2.322550
						CHANNELS 3 Zrotation Yrotation Xrotation
						End Site
						{
							OFFSET 0.000000 0.000000 0.000000
						}
					}
				}
			}
		}
	}
	JOINT rhipjoint
	{
		OFFSET 0.000000 0.000000 0.000000
		CHANNELS 3 Zrotation Yrotation Xrotation
		JOINT rfemur
		{
			OFFSET -1.305520 -1.794630 0.839290
			CHANNELS 3 Zrotation Yrotation Xrotation
			JOINT rtibia
			{
				OFFSET -2.542530 -6.985550 0.000000
				CHANNELS 3 Zrotation Yrotation Xrotation
				JOINT rfoot
				{
					OFFSET -2.568260 -7.056230 0.000000
					CHANNELS 3 Zrotation Yrotation Xrotation
					JOINT rtoes
					{
						OFFSET -0.164730 -0.452590 2.363150
						CHANNELS 3 Zrotation Yrotation Xrotation
						End Site
						{
							OFFSET 0.000000 0.000000 0.000000
						}
					}
				}
			}
		}
	}
	JOINT lowerback
	{
		OFFSET 0.000000 0.000000 0.000000
		CHANNELS 3 Zrotation Yrotation Xrotation
		JOINT upperback
		{
			OFFSET 0.028270 2.035590 -0.193380
			CHANNELS 3 Zrotation Yrotation Xrotation
			JOINT thorax
			{
				OFFSET 0.056720 2.048850 -0.042750
				CHANNELS 3 Zrotation Yrotation Xrotation
				JOINT lowerneck
				{
					OFFSET 0.000000 0.000000 0.000000
					CHANNELS 3 Zrotation Yrotation Xrotation
					JOINT upperneck
					{
						OFFSET -0.054170 1.746240 0.172020
						CHANNELS 3 Zrotation Yrotation Xrotation
						JOINT head
						{
							OFFSET 0.104070 1.761360 -0.123970
							CHANNELS 3 Zrotation Yrotation Xrotation
							End Site
							{
								OFFSET 0.000000 0.000000 0.000000
							}
						}
					}
				}
				JOINT lclavicle
				{
					OFFSET 0.000000 0.000000 0.000000
					CHANNELS 3 Zrotation Yrotation Xrotation
					JOINT lhumerus
					{
						OFFSET 3.362410 1.200890 -0.311210
						CHANNELS 3 Zrotation Yrotation Xrotation
						JOINT lradius
						{
							OFFSET 4.983000 -0.000000 -0.000000
							CHANNELS 3 Zrotation Yrotation Xrotation
							JOINT lwrist
							{
								OFFSET 3.483560 -0.000000 -0.000000
								CHANNELS 3 Zrotation Yrotation Xrotation
								JOINT lhand
								{
									OFFSET 0.000000 0.000000 0.000000
									CHANNELS 3 Zrotation Yrotation Xrotation
									JOINT lfingers
									{
										OFFSET 0.715260 -0.000000 -0.000000
										CHANNELS 3 Zrotation Yrotation Xrotation
										End Site
										{
											OFFSET 0.000000 0.000000 0.000000
										}
									}
								}
								JOINT lthumb
								{
									OFFSET 0.000000 0.000000 0.000000
									CHANNELS 3 Zrotation Yrotation Xrotation
									End Site
									{
										OFFSET 0.000000 0.000000 0.000000
									}
								}
							}
						}
					}
				}
				JOINT rclavicle
				{
					OFFSET 0.000000 0.000000 0.000000
					CHANNELS 3 Zrotation Yrotation Xrotation
					JOINT rhumerus
					{
						OFFSET -3.136600 1.374050 -0.404650
						CHANNELS 3 Zrotation Yrotation Xrotation
						JOINT rradius
						{
							OFFSET -5.241900 -0.000000 -0.000000
							CHANNELS 3 Zrotation Yrotation Xrotation
							JOINT rwrist
							{
								OFFSET -3.444170 -0.000000 -0.000000
								CHANNELS 3 Zrotation Yrotation Xrotation
								JOINT rhand
								{
									OFFSET 0.000000 0.000000 0.000000
									CHANNELS 3 Zrotation Yrotation Xrotation
									JOINT rfingers
									{
										OFFSET -0.622530 -0.000000 -0.000000
										CHANNELS 3 Zrotation Yrotation Xrotation
										End Site
										{
											OFFSET 0.000000 0.000000 0.000000
										}
									}
								}
								JOINT rthumb
								{
									OFFSET 0.000000 0.000000 0.000000
									CHANNELS 3 Zrotation Yrotation Xrotation
									End Site
									{
										OFFSET 0.000000 0.000000 0.000000
									}
								}
							}
						}
					}
				}
			}
		}
	}
}
MOTION
Frames: 10
Frame Time: 0.008333
0.765804 17.526682 3.801159 -154.696031 -43.629831 160.357868 -4.985630 -4.475209 -3.675836 4.843910 -12.479402 -4.391865 1.872383 9.624145 22.064425 -0.834606 -18.467802 10.678084 0.279300 3.399000 9.391700 10.624842 0.209579 3.738459 -6.901772 16.223722 -106.157440 -30.286930 -11.094950 126.117658 -2.846660 8.535729 19.200140 -1.137700 6.773800 -19.046900 -3.596184 -0.160802 44.885802 1.551006 -6.606438 -0.397034 -0.712716 -5.011041 6.158956 -9.400119 -7.696318 -13.686644 29.520962 -15.354642 6.649475 8.613300 -7.293600 5.425300 -6.485636 -4.169963 4.117458 -171.771250 -73.402612 141.047538 111.793891 -56.117079 -76.501368 -1.425736 2.972133 0.080453 46.625636 -11.156316 -16.240800 -7.125000 0.000000 0.000000 13.297100 8.413700 -11.531800 7.539755 3.387158 2.899566 75.527724 -25.329752 22.494288 -10.998227 30.928090 -2.566398 -0.216344 -1.108873 21.943676 -8.876732 10.686248 -1.874900 7.125000 0.000000 0.000000 12.600100 -18.193500 8.237800 
0.761056 17.525160 3.804742 -154.878123 -43.471303 160.500189 -4.971540 -4.455878 -3.671621 4.692575 -12.551633 -4.346397 1.883678 9.653386 22.142561 -0.821435 -18.313865 10.354390 0.261900 3.292400 9.094000 10.585702 0.198390 3.724657 -6.677734 16.512753 -105.921013 -30.234531 -11.108389 125.935213 -2.884709 8.423360 19.590204 -1.036000 6.473700 -18.165100 -3.613151 -0.160405 44.673218 1.556296 -6.589357 -0.389737 -0.657813 -5.009026 6.273291 -9.620106 -7.736350 -13.809948 29.458860 -15.363467 6.716103 8.641500 -7.277300 5.486000 -6.491727 -4.134238 4.159130 -171.212880 -73.408465 140.043480 112.143258 -56.020358 -76.916234 -1.451552 2.946000 -0.042227 46.758904 -11.053522 -16.193500 -7.125000 0.000000 0.000000 13.419400 8.538600 -11.609900 7.530395 3.341422 2.895943 75.338573 -25.090242 22.499451 -10.931501 30.861192 -2.557237 -0.222968 -1.095582 22.150707 -8.972701 10.789452 -1.908200 7.125000 0.000000 0.000000 12.534300 -18.097600 8.219800 
0.754248 17.523099 3.808415 -155.103187 -43.292279 160.652887 -4.954669 -4.441093 -3.671335 4.497163 -12.602632 -4.259747 1.893260 9.679815 22.204723 -0.805646 -18.154269 10.039616 0.248600 3.208200 8.858900 10.547287 0.183388 3.711048 -6.451446 16.772208 -105.637094 -30.187718 -11.120271 125.772198 -2.924894 8.252100 19.998073 -0.926100 6.130800 -17.164400 -3.596776 -0.172872 44.412612 1.553171 -6.592308 -0.376219 -0.669969 -5.004418 6.430608 -9.863714 -7.771071 -13.997088 29.435155 -15.382945 6.841114 8.687000 -7.257000 5.589900 -6.502599 -4.089691 4.216962 -170.479233 -73.465389 138.881435 112.585943 -55.900653 -77.418406 -1.476066 2.917805 -0.248136 46.763548 -10.987695 -16.102000 -7.125000 0.000000 0.000000 13.452900 8.669400 -11.604600 7.509009 3.295597 2.887446 75.212101 -24.829550 22.406464 -10.896475 30.839284 -2.558299 -0.232244 -1.083122 22.380444 -9.073140 10.958028 -1.953100 7.125000 0.000000 0.000000 12.463600 -17.935000 8.217100 
0.745738 17.521128 3.811371 -155.339372 -43.095731 160.816301 -4.938448 -4.425912 -3.669922 4.306061 -12.631476 -4.171958 1.901346 9.706042 22.262277 -0.785750 -17.976194 9.751138 0.237900 3.138700 8.665100 10.510045 0.167704 3.698076 -6.207215 17.009407 -105.311446 -30.142018 -11.133685 125.611533 -2.969274 8.091060 20.427578 -0.826800 5.801300 -16.208900 -3.583012 -0.203813 44.092228 1.552197 -6.609559 -0.363690 -0.675323 -5.007859 6.610598 -10.061368 -7.807611 -14.236698 29.327598 -15.394483 7.035338 8.687300 -7.221600 5.706800 -6.512412 -4.033200 4.279168 -169.687105 -73.535437 137.587161 112.921642 -55.815015 -77.820729 -1.494521 2.892395 -0.380674 46.755288 -10.931594 -16.012900 -7.125000 0.000000 0.000000 13.474800 8.791000 -11.591100 7.492426 3.245597 2.881216 75.016078 -24.505833 22.365639 -10.858894 30.814629 -2.557991 -0.240747 -1.064018 22.460668 -9.096336 11.203060 -1.991900 7.125000 0.000000 0.000000 12.446500 -17.706900 8.269300 
0.736870 17.519874 3.814954 -155.570484 -42.909411 160.976691 -4.923957 -4.410043 -3.667158 4.108168 -12.679738 -4.081774 1.910726 9.733128 22.325037 -0.769039 -17.809040 9.423592 0.220500 3.023100 8.343000 10.474560 0.149105 3.686749 -5.942565 17.216034 -104.960154 -30.099903 -11.147932 125.457321 -3.005167 7.963195 20.766115 -0.768000 5.595900 -15.616400 -3.539892 -0.262492 43.747541 1.553888 -6.641613 -0.358397 -0.686925 -5.011748 6.774945 -10.275322 -7.830147 -14.472954 29.243508 -15.393143 7.240127 8.703100 -7.180400 5.829600 -6.520393 -3.978884 4.345430 -168.841369 -73.642319 136.197751 113.215415 -55.747042 -78.185417 -1.510734 2.866608 -0.531532 46.673577 -10.844874 -15.849400 -7.125000 0.000000 0.000000 13.457700 8.983700 -11.522300 7.469447 3.197538 2.873395 74.856992 -24.149567 22.246294 -10.830840 30.796209 -2.560632 -0.248183 -1.048335 22.467591 -9.098521 11.432909 -2.024400 7.125000 0.000000 0.000000 12.444000 -17.491600 8.328000 
0.725852 17.518172 3.816298 -155.870555 -42.679090 161.182753 -4.905372 -4.394333 -3.664726 3.867091 -12.658972 -3.979015 1.918939 9.761111 22.382215 -0.749777 -17.633925 9.102947 0.210600 2.954300 8.151700 10.436264 0.131137 3.673866 -5.688839 17.432463 -104.576930 -30.062024 -11.158323 125.315458 -3.027487 7.924815 20.961164 -0.739500 5.493600 -15.321900 -3.529038 -0.299849 43.339365 1.547623 -6.662546 -0.350029 -0.720188 -5.009124 6.972366 -10.463001 -7.852012 -14.768052 29.142604 -15.396137 7.499756 8.703400 -7.132900 5.978000 -6.531299 -3.913723 4.419137 -167.918360 -73.723752 134.727100 113.395223 -55.708861 -78.435807 -1.522746 2.844276 -0.708511 46.602930 -10.835539 -15.773000 -7.125000 0.000000 0.000000 13.424700 9.060600 -11.471000 7.449342 3.146271 2.864171 74.671182 -23.775247 22.224894 -10.855344 30.831263 -2.574018 -0.251746 -1.038716 22.320882 -9.061822 11.609512 -2.040900 7.125000 0.000000 0.000000 12.468400 -17.326600 8.391400 
0.713669 17.515306 3.818090 -156.139527 -42.447844 161.373168 -4.889387 -4.382632 -3.664027 3.654243 -12.627271 -3.887018 1.926352 9.787694 22.438150 -0.737005 -17.495630 8.769459 0.189000 2.800000 7.722500 10.399008 0.108083 3.659396 -5.394108 17.627929 -104.152805 -30.027318 -11.169846 125.174232 -3.036222 7.889598 21.039229 -0.752000 5.538600 -15.451400 -3.435817 -0.361405 42.885111 1.533973 -6.693379 -0.340282 -0.844985 -4.992137 7.186343 -10.507927 -7.873349 -15.088331 29.003380 -15.411541 7.768814 8.654700 -7.090200 6.117400 -6.539020 -3.838779 4.500766 -166.936179 -73.765262 133.231959 113.461302 -55.696781 -78.569865 -1.531411 2.824152 -0.783669 46.601267 -10.813520 -15.725200 -7.125000 0.000000 0.000000 13.437300 9.126500 -11.464200 7.428605 3.105967 2.852636 74.552704 -23.413518 22.266149 -10.934111 30.934378 -2.599771 -0.256546 -1.038155 22.011506 -9.038564 11.772192 -2.059400 7.125000 0.000000 0.000000 12.484300 -17.165500 8.447900 
0.700232 17.513425 3.818627 -156.445897 -42.181682 161.561379 -4.871542 -4.370962 -3.662490 3.411307 -12.566335 -3.745205 1.932467 9.820031 22.496430 -0.720021 -17.332003 8.409079 0.177800 2.715700 7.488300 10.358688 0.084162 3.644577 -5.068145 17.825171 -103.653152 -29.993314 -11.181526 125.030209 -3.036679 7.883146 21.039382 -0.801300 5.713300 -15.954700 -3.394763 -0.406395 42.411597 1.524149 -6.715169 -0.329537 -0.921806 -4.981614 7.412025 -10.579230 -7.849642 -15.395162 28.906702 -15.372712 8.020971 8.634200 -7.026800 6.241700 -6.549281 -3.764281 4.586475 -165.960074 -73.840954 131.706324 113.405743 -55.721194 -78.592332 -1.537085 2.804034 -0.870733 46.642501 -10.813295 -15.723000 -7.125000 0.000000 0.000000 13.468100 9.145300 -11.486900 7.418952 3.054335 2.843945 74.356882 -23.042146 22.427365 -11.063848 31.073421 -2.636978 -0.258978 -1.045623 21.616629 -9.063998 11.834253 -2.074900 7.125000 0.000000 0.000000 12.468600 -17.094000 8.456700 
0.685004 17.510558 3.819344 -156.739642 -41.888441 161.734487 -4.857364 -4.360422 -3.658671 3.192712 -12.457615 -3.615620 1.938425 9.858206 22.569312 -0.706899 -17.195441 8.049421 0.159800 2.575900 7.100300 10.318798 0.057131 3.630846 -4.694488 17.993143 -103.096373 -29.960841 -11.196371 124.884124 -3.036050 7.857886 21.033245 -0.837400 5.837400 -16.313300 -3.336010 -0.464944 41.924763 1.516576 -6.742690 -0.323970 -0.995545 -4.970822 7.627030 -10.638736 -7.802339 -15.694086 28.844474 -15.312059 8.252053 8.627200 -6.957700 6.355900 -6.559699 -3.689908 4.681990 -164.884456 -73.968069 130.071226 113.255578 -55.771537 -78.527715 -1.538232 2.783485 -0.812592 46.755039 -10.764545 -15.709800 -7.125000 0.000000 0.000000 13.555800 9.207600 -11.548800 7.418286 3.003233 2.833598 74.114494 -22.708600 22.715564 -11.272058 31.283749 -2.693216 -0.262738 -1.060419 21.151968 -9.158700 11.860295 -2.101900 7.125000 0.000000 0.000000 12.406700 -17.046700 8.425800 
0.667895 17.507333 3.820329 -157.073170 -41.555733 161.909618 -4.841377 -4.351974 -3.654539 2.941322 -12.334147 -3.416772 1.938300 9.887162 22.599396 -0.684680 -17.011834 7.722384 0.152000 2.511900 6.922800 10.276725 0.029077 3.617391 -4.279811 18.146945 -102.465300 -29.926395 -11.215063 124.721676 -3.025924 7.862161 20.943058 -0.919400 6.109300 -17.101900 -3.324758 -0.510847 41.433844 1.507790 -6.770481 -0.322719 -1.058350 -4.964339 7.834195 -10.635733 -7.695208 -15.964186 28.799074 -15.185903 8.469880 8.619700 -6.863700 6.437100 -6.564363 -3.613034 4.793551 -163.679481 -74.140218 128.333771 113.020607 -55.841272 -78.382406 -1.536793 2.762128 -0.759224 46.939716 -10.751667 -15.772200 -7.125000 0.000000 0.000000 13.676900 9.193800 -11.662300 7.416212 2.948072 2.824155 73.845100 -22.311448 23.025740 -11.412375 31.425311 -2.735687 -0.272239 -1.072480 20.680912 -9.346687 11.920282 -2.154500 7.125000 0.000000 0.000000 12.284400 -16.961200 8.362200 
